<svg xmlns="http://www.w3.org/2000/svg" version="1.1" xmlns:xlink="http://www.w3.org/1999/xlink" xmlns:svgjs="http://svgjs.com/svgjs" width="512" height="512" x="0" y="0" viewBox="0 0 6.35 6.35" style="enable-background:new 0 0 512 512" xml:space="preserve" class=""><g><path d="M2.386.667c-1.168 0-2.12.953-2.12 2.12 0 .486.156.949.448 1.308l-.44 1.246a.265.265 0 0 0 .346.334l1.33-.518a.265.265 0 0 0 .006-.002l.6-.247h1.157a.265.265 0 0 0 .004 0h.264c1.167 0 2.12-.953 2.12-2.12 0-1.168-.953-2.12-2.12-2.12h-.264a.265.265 0 0 0-.004 0h-1.06zm0 .53h1.326a.265.265 0 0 0 .005 0h.264c.881 0 1.59.71 1.59 1.59 0 .882-.709 1.591-1.59 1.591h-.258a.265.265 0 0 0-.01 0h-1.21a.265.265 0 0 0-.1.02l-.647.266-.792.309.295-.833a.265.265 0 0 0 .016-.115.266.266 0 0 0-.074-.179 1.518 1.518 0 0 1-.405-1.058c0-.882.709-1.59 1.59-1.59zm-.002.658a.265.265 0 1 0 0 .53h1.591a.265.265 0 1 0 0-.53zm-.025 1.06a.266.266 0 0 0 .025.53h1.591a.265.265 0 0 0 0-.53h-1.59a.265.265 0 0 0-.026 0z" fill="#878a99" data-original="#000000" class=""></path></g></svg>